<?xml version="1.0" standalone="no"?><!DOCTYPE svg PUBLIC "-//W3C//DTD SVG 1.1//EN" "http://www.w3.org/Graphics/SVG/1.1/DTD/svg11.dtd"><svg t="1543563089840" class="icon" style="" viewBox="0 0 1024 1024" version="1.1" xmlns="http://www.w3.org/2000/svg" p-id="4895" xmlns:xlink="http://www.w3.org/1999/xlink" width="200" height="200"><defs><style type="text/css"></style></defs><path d="M63.7 124h875.5v20.4H63.7zM63.7 302.5h745.7v20.4H63.7zM870.6 302.5h68.7v20.4h-68.7zM942 867L839.3 764.3c25.9-32 41.5-72.7 41.5-117 0-102.6-83.5-186.1-186.1-186.1s-186.1 83.5-186.1 186.1 83.5 186.1 186.1 186.1c50.1 0 95.6-19.9 129.1-52.2l102 102L942 867z m-247.3-54C603.3 813 529 738.7 529 647.3c0-91.4 74.3-165.7 165.7-165.7S860.4 556 860.4 647.3c0 91.4-74.4 165.7-165.7 165.7zM63.7 475.8h350.5v20.4H63.7zM447.4 475.8h54.1v20.4h-54.1zM63.7 637.1h396.4v20.4H63.7zM63.7 848h518.8v20.4H63.7z" fill="" p-id="4896"></path></svg>